<svg width="18" height="18" viewBox="0 0 18 18" fill="none" xmlns="http://www.w3.org/2000/svg">
<g id="file/download_line">
<g id="download_line">
<path d="M9 2C9.36819 2 9.66667 2.34189 9.66667 2.76364V9.75986L10.8856 8.36361C11.146 8.06539 11.5681 8.06539 11.8284 8.36361C12.0888 8.66183 12.0888 9.14534 11.8284 9.44355L9.58926 12.0084C9.26382 12.3812 8.73618 12.3812 8.41075 12.0084L6.17157 9.44355C5.91122 9.14534 5.91122 8.66183 6.17157 8.36361C6.43192 8.06539 6.85403 8.06539 7.11438 8.36361L8.33333 9.75986V2.76364C8.33333 2.34189 8.63181 2 9 2Z" fill="white"/>
<path d="M2 4.54545C2 3.70197 2.59695 3.01818 3.33333 3.01818H5.33333V4.54545H3.33333V14.4727H14.6667V4.54545H12.6667V3.01818H14.6667C15.403 3.01818 16 3.70197 16 4.54545V14.4727C16 15.3162 15.403 16 14.6667 16H3.33333C2.59695 16 2 15.3162 2 14.4727V4.54545Z" fill="white"/>
</g>
</g>
</svg>
