<svg width="20" height="20" viewBox="0 0 20 20" fill="none" xmlns="http://www.w3.org/2000/svg">
<g id="Download3">
<path id="icon" d="M10 2C10.4142 2 10.75 2.32561 10.75 2.72727V12.6078L13.9697 9.48574C14.2626 9.20172 14.7374 9.20172 15.0303 9.48574C15.3232 9.76976 15.3232 10.2302 15.0303 10.5143L10.5303 14.8779C10.2374 15.1619 9.76256 15.1619 9.46967 14.8779L4.96967 10.5143C4.67678 10.2302 4.67678 9.76976 4.96967 9.48574C5.26256 9.20172 5.73744 9.20172 6.03033 9.48574L9.25 12.6078V2.72727C9.25 2.32561 9.58579 2 10 2ZM4 17.2727C4 16.8711 4.33579 16.5455 4.75 16.5455H15.25C15.6642 16.5455 16 16.8711 16 17.2727C16 17.6744 15.6642 18 15.25 18H4.75C4.33579 18 4 17.6744 4 17.2727Z" fill="#9A5DFF"/>
</g>
</svg>
