<svg width="18" height="18" viewBox="0 0 18 18" fill="none" xmlns="http://www.w3.org/2000/svg">
<g id="Edit1">
<path id="icon" d="M14.6513 1.22316C14.5102 1.08027 14.3188 1 14.1192 1C13.9197 1 13.7283 1.08027 13.5872 1.22316L7.33141 7.55741C7.22637 7.66377 7.15477 7.79924 7.12563 7.94674L6.59356 10.6405C6.54422 10.8903 6.62144 11.1485 6.79934 11.3286C6.97724 11.5088 7.23228 11.587 7.47898 11.537L10.1393 10.9983C10.285 10.9688 10.4188 10.8963 10.5238 10.7899L16.7796 4.45564C17.0735 4.1581 17.0735 3.67569 16.7796 3.37815L14.6513 1.22316ZM8.55665 8.47179L14.1192 2.8394L15.1834 3.9169L9.6208 9.54928L8.29062 9.81866L8.55665 8.47179ZM2.50493 4.04762C2.50493 3.62683 2.84182 3.28571 3.25739 3.28571H8.52464C8.94021 3.28571 9.2771 2.9446 9.2771 2.52381C9.2771 2.10302 8.94021 1.7619 8.52464 1.7619H3.25739C2.01067 1.7619 1 2.78525 1 4.04762V14.7143C1 15.9767 2.01067 17 3.25739 17H13.7919C15.0386 17 16.0493 15.9767 16.0493 14.7143V9.38095C16.0493 8.96016 15.7124 8.61905 15.2968 8.61905C14.8812 8.61905 14.5443 8.96016 14.5443 9.38095V14.7143C14.5443 15.1351 14.2075 15.4762 13.7919 15.4762H3.25739C2.84182 15.4762 2.50493 15.1351 2.50493 14.7143V4.04762Z" fill="white"/>
</g>
</svg>
