<svg width="18" height="18" viewBox="0 0 18 18" fill="none" xmlns="http://www.w3.org/2000/svg">
<g id="&#233;&#135;&#145;&#229;&#184;&#129; (4) 1">
<g id="Group 123641">
<path id="Vector" d="M10.153 16.7142H7.84685C4.22519 16.7142 1.28564 13.7747 1.28564 10.153V7.84685C1.28564 4.22519 4.22519 1.28564 7.84685 1.28564H10.153C13.7747 1.28564 16.7142 4.22519 16.7142 7.84685V10.153C16.7142 13.7747 13.7747 16.7142 10.153 16.7142Z" fill="#FF9A23"/>
<path id="Vector_2" d="M16.7142 10.153V7.84685C16.7142 4.22519 13.7747 1.28564 10.153 1.28564H7.84685C4.22519 1.28564 1.28564 4.22519 1.28564 7.84685V10.153C1.28564 13.7747 4.22519 16.7142 7.84685 16.7142H10.153C10.3641 16.7142 10.5753 16.698 10.7702 16.6817C13.3524 15.7073 15.4474 13.7422 16.6168 11.2574C16.6817 10.9001 16.7142 10.5265 16.7142 10.153Z" fill="#FF9A23"/>
<path id="Vector_3" d="M10.153 1.28564H7.84685C4.22519 1.28564 1.28564 4.22519 1.28564 7.84685V10.153C1.28564 12.6703 2.71482 14.8628 4.80985 15.9671C5.52444 16.1296 6.25527 16.227 7.01858 16.227C12.2318 16.227 16.4706 11.9882 16.4706 6.77497C16.4706 6.49888 16.4544 6.22279 16.4381 5.96294C15.6261 3.25076 13.125 1.28564 10.153 1.28564Z" fill="#FF9F23"/>
<path id="Vector_4" d="M15.3338 6.77497C15.3338 5.32955 14.9602 3.96534 14.3106 2.76354C13.1738 1.83782 11.7446 1.28564 10.1693 1.28564H7.84685C4.22519 1.28564 1.28564 4.22519 1.28564 7.84685V10.153C1.28564 11.4035 1.64294 12.5891 2.26008 13.5798C3.60805 14.5217 5.24835 15.0739 7.01858 15.0739C11.5984 15.0902 15.3338 11.3548 15.3338 6.77497Z" fill="#FFA423"/>
<path id="Vector_5" d="M7.84685 1.28564C4.22519 1.28564 1.28564 4.22519 1.28564 7.84685V10.153C1.28564 10.5103 1.31813 10.8514 1.36685 11.1924C2.68234 12.8652 4.71241 13.9371 7.01858 13.9371C10.9813 13.9371 14.1969 10.7214 14.1969 6.75873C14.1807 4.69617 13.3037 2.8285 11.907 1.52925C11.3548 1.38309 10.7702 1.28564 10.1693 1.28564H7.84685Z" fill="#FFAA23"/>
<path id="Vector_6" d="M9.51963 1.28564H7.84685C4.22519 1.28564 1.28564 4.22519 1.28564 7.84685V8.65888C2.11392 11.1762 4.55001 12.9626 7.39211 12.784C10.3966 12.6053 12.8327 10.1855 13.0276 7.18098C13.2062 4.58249 11.7121 2.29256 9.51963 1.28564Z" fill="#FFAF23"/>
<path id="Vector_7" d="M2.19482 6.83984C2.19482 7.48179 2.32127 8.11746 2.56693 8.71055C2.8126 9.30365 3.17268 9.84254 3.62661 10.2965C4.08054 10.7504 4.61944 11.1105 5.21253 11.3561C5.80562 11.6018 6.44129 11.7283 7.08324 11.7283C7.7252 11.7283 8.36087 11.6018 8.95396 11.3561C9.54705 11.1105 10.0859 10.7504 10.5399 10.2965C10.9938 9.84254 11.3539 9.30365 11.5996 8.71055C11.8452 8.11746 11.9717 7.48179 11.9717 6.83984C11.9717 6.19788 11.8452 5.56221 11.5996 4.96912C11.3539 4.37603 10.9938 3.83713 10.5399 3.3832C10.0859 2.92927 9.54705 2.56919 8.95396 2.32352C8.36087 2.07786 7.7252 1.95142 7.08324 1.95142C6.44129 1.95142 5.80562 2.07786 5.21253 2.32352C4.61944 2.56919 4.08054 2.92927 3.62661 3.3832C3.17268 3.83713 2.8126 4.37603 2.56693 4.96912C2.32127 5.56221 2.19482 6.19788 2.19482 6.83984Z" fill="#FFB423"/>
<path id="Vector_8" d="M3.34814 6.82372C3.34814 7.31425 3.44476 7.79998 3.63248 8.25317C3.8202 8.70636 4.09534 9.11814 4.4422 9.465C4.78906 9.81186 5.20084 10.087 5.65403 10.2747C6.10722 10.4624 6.59295 10.5591 7.08348 10.5591C7.57401 10.5591 8.05974 10.4624 8.51293 10.2747C8.96613 10.087 9.37791 9.81186 9.72477 9.465C10.0716 9.11814 10.3468 8.70636 10.5345 8.25317C10.7222 7.79998 10.8188 7.31425 10.8188 6.82372C10.8188 5.83304 10.4253 4.88295 9.72477 4.18243C9.02425 3.48192 8.07416 3.08838 7.08348 3.08838C6.09281 3.08838 5.14271 3.48192 4.4422 4.18243C3.74169 4.88295 3.34814 5.83304 3.34814 6.82372Z" fill="#FFB923"/>
<path id="Vector_9" opacity="0.8" d="M11.6957 6.28777C9.99042 4.5825 6.93719 4.84235 5.65418 7.11604C4.98832 8.26912 4.98832 9.73077 5.65418 10.8839C6.93719 13.1413 9.97418 13.4174 11.6957 11.7121C13.1736 10.2342 13.2223 7.76566 11.6957 6.28777ZM9.89298 9.95814C9.66561 10.1855 9.45448 10.4291 9.29208 10.6565C9.14591 10.8514 8.85358 10.8514 8.70742 10.6565C8.52877 10.4291 8.31764 10.1855 8.07403 9.95814C7.83042 9.71453 7.58682 9.48717 7.34321 9.30852C7.16456 9.17859 7.16456 8.9025 7.35945 8.77258C7.60306 8.61017 7.84666 8.39905 8.09027 8.17168C8.35012 7.91183 8.57749 7.6195 8.77238 7.35965C8.88606 7.21348 9.11343 7.21348 9.22712 7.35965C9.40576 7.6195 9.63313 7.89559 9.89298 8.15544C10.1203 8.3828 10.3802 8.59393 10.6076 8.77258C10.7862 8.9025 10.8025 9.17859 10.6076 9.30852C10.3802 9.47092 10.1366 9.68205 9.89298 9.95814Z" fill="white"/>
</g>
</g>
</svg>
