<svg width="24" height="24" viewBox="0 0 24 24" fill="none" xmlns="http://www.w3.org/2000/svg">
<g id="Share">
<path id="icon" d="M15.6 3C15.1029 3 14.7 3.40294 14.7 3.9C14.7 4.39706 15.1029 4.8 15.6 4.8H17.9272L10.0136 12.7136C9.66213 13.0651 9.66213 13.6349 10.0136 13.9864C10.3651 14.3379 10.9349 14.3379 11.2864 13.9864L19.2 6.07279V8.4C19.2 8.89706 19.6029 9.3 20.1 9.3C20.5971 9.3 21 8.89706 21 8.4V3.9C21 3.40294 20.5971 3 20.1 3H15.6ZM4.8 5.7C4.8 5.20294 5.20294 4.8 5.7 4.8H10.2C10.6971 4.8 11.1 4.39706 11.1 3.9C11.1 3.40294 10.6971 3 10.2 3H5.7C4.20883 3 3 4.20883 3 5.7V18.3C3 19.7912 4.20883 21 5.7 21H18.3C19.7912 21 21 19.7912 21 18.3V13.74C21 13.2429 20.5971 12.84 20.1 12.84C19.6029 12.84 19.2 13.2429 19.2 13.74V18.3C19.2 18.7971 18.7971 19.2 18.3 19.2H5.7C5.20294 19.2 4.8 18.7971 4.8 18.3V5.7Z" fill="white"/>
</g>
</svg>
