<svg width="14" height="14" viewBox="0 0 14 14" fill="none" xmlns="http://www.w3.org/2000/svg">
<g id="Stop">
<path id="icon" d="M2.22735 6.99984C2.22735 4.36393 4.36418 2.22711 7.00008 2.22711C9.63599 2.22711 11.7728 4.36393 11.7728 6.99984C11.7728 9.63574 9.63599 11.7726 7.00008 11.7726C4.36418 11.7726 2.22735 9.63574 2.22735 6.99984ZM7.00008 1.1665C3.77842 1.1665 1.16675 3.77818 1.16675 6.99984C1.16675 10.2215 3.77842 12.8332 7.00008 12.8332C10.2217 12.8332 12.8334 10.2215 12.8334 6.99984C12.8334 3.77818 10.2217 1.1665 7.00008 1.1665Z" fill="white" stroke="white" stroke-width="0.2"/>
<path id="icon_2" d="M6.62502 5.12498C6.83211 4.91789 7.16789 4.91789 7.37498 5.12498L8.87492 6.62492C9.08201 6.83201 9.08201 7.16778 8.87491 7.37488L7.37498 8.87481C7.16789 9.08191 6.83211 9.08191 6.62502 8.87481L5.12509 7.37488C4.91799 7.16778 4.91799 6.83201 5.12508 6.62492L6.62502 5.12498Z" fill="white"/>
</g>
</svg>
