<svg width="14" height="14" viewBox="0 0 14 14" fill="none" xmlns="http://www.w3.org/2000/svg">
<g id="contact/chat_3_line">
<path id="Ellipse 370 (Stroke)" fill-rule="evenodd" clip-rule="evenodd" d="M7.00008 2.91667C4.31865 2.91667 2.33341 4.70932 2.33341 6.70833C2.33341 7.88292 2.99921 8.96708 4.10768 9.68124C4.53865 9.9589 4.65542 10.4993 4.67509 10.9774C5.11399 10.7967 5.40859 10.3009 5.9418 10.4017C6.28125 10.4659 6.63544 10.5 7.00008 10.5C9.68151 10.5 11.6667 8.70735 11.6667 6.70833C11.6667 4.70932 9.68151 2.91667 7.00008 2.91667ZM1.16675 6.70833C1.16675 3.87485 3.88252 1.75 7.00008 1.75C10.1176 1.75 12.8334 3.87485 12.8334 6.70833C12.8334 9.54181 10.1176 11.6667 7.00008 11.6667C6.61926 11.6667 6.24643 11.6357 5.88507 11.5764C5.83106 11.6188 5.73758 11.6959 5.62254 11.777C5.29167 12.0101 4.8121 12.25 4.08341 12.25C3.76125 12.25 3.50008 11.9888 3.50008 11.6667C3.50008 11.3458 3.58369 10.947 3.44539 10.6422C2.08667 9.7548 1.16675 8.34038 1.16675 6.70833Z" fill="white"/>
</g>
</svg>
