<svg width="14" height="14" viewBox="0 0 14 14" fill="none" xmlns="http://www.w3.org/2000/svg">
<g id="file/download_line">
<g id="download_line">
<path d="M7 2.00006C7.27614 2.00006 7.5 2.22392 7.5 2.50006V7.91426L8.41421 7.00004C8.60948 6.80478 8.92606 6.80478 9.12132 7.00004C9.31658 7.19531 9.31658 7.51189 9.12132 7.70715L7.44194 9.38653C7.19786 9.63061 6.80214 9.63061 6.55806 9.38653L4.87868 7.70715C4.68342 7.51189 4.68342 7.19531 4.87868 7.00004C5.07394 6.80478 5.39052 6.80478 5.58579 7.00004L6.5 7.91426V2.50006C6.5 2.22392 6.72386 2.00006 7 2.00006Z" fill="white"/>
<path d="M2.5 4.50006C2.5 3.94778 2.94772 3.50006 3.5 3.50006H5V4.50006H3.5V11.0001H10.5V4.50006H9V3.50006H10.5C11.0523 3.50006 11.5 3.94778 11.5 4.50006V11.0001C11.5 11.5523 11.0523 12.0001 10.5 12.0001H3.5C2.94772 12.0001 2.5 11.5523 2.5 11.0001V4.50006Z" fill="white"/>
</g>
</g>
</svg>
