<svg width="13" height="12" viewBox="0 0 13 12" fill="none" xmlns="http://www.w3.org/2000/svg">
<g id="Frame" clip-path="url(#clip0_32_9002)">
<path id="Vector" d="M6.5 10.5499C4.27548 10.5499 2.29939 9.14521 0.573946 6.42608L6.5 10.5499ZM6.5 10.5499C8.72452 10.5499 10.7006 9.14521 12.4261 6.42608L6.5 10.5499ZM0.573946 5.57385C0.492993 5.70123 0.45 5.84904 0.45 5.99996C0.45 6.15088 0.492987 6.29868 0.573928 6.42605L0.573946 5.57385ZM0.573946 5.57385C2.29939 2.85472 4.27548 1.45 6.5 1.45C8.72452 1.45 10.7006 2.85472 12.4261 5.57385C12.4261 5.57386 12.4261 5.57387 12.4261 5.57388L12.3839 5.60067L0.573946 5.57385ZM1.49537 5.99996C3.04263 3.6036 4.71032 2.44999 6.5 2.44999C8.28968 2.44999 9.95737 3.6036 11.5046 5.99997C9.95737 8.39633 8.28968 9.54994 6.5 9.54994C4.71032 9.54994 3.04263 8.39633 1.49537 5.99996ZM4.33127 5.99996C4.33127 7.18779 5.30267 8.14995 6.5 8.14995C7.69733 8.14995 8.66873 7.18779 8.66873 5.99996C8.66873 4.81214 7.69733 3.84998 6.5 3.84998C5.30267 3.84998 4.33127 4.81214 4.33127 5.99996ZM7.66079 5.99996C7.66079 6.63462 7.1415 7.14995 6.5 7.14995C5.8585 7.14995 5.33921 6.63462 5.33921 5.99996C5.33921 5.3653 5.8585 4.84997 6.5 4.84997C7.1415 4.84997 7.66079 5.3653 7.66079 5.99996Z" fill="white" stroke="white" stroke-width="0.1"/>
</g>
<defs>
<clipPath id="clip0_32_9002">
<rect width="12" height="12" fill="white" transform="translate(0.5)"/>
</clipPath>
</defs>
</svg>
