<svg width="14" height="14" viewBox="0 0 14 14" fill="none" xmlns="http://www.w3.org/2000/svg">
<g id="&#233;&#135;&#145;&#229;&#184;&#129; (4) 1" clip-path="url(#clip0_418_7163)">
<path id="Vector" d="M7.99361 13.6501H6.00561C2.88361 13.6501 0.349609 11.1161 0.349609 7.9941V6.0061C0.349609 2.8841 2.88361 0.350098 6.00561 0.350098H7.99361C11.1156 0.350098 13.6496 2.8841 13.6496 6.0061V7.9941C13.6496 11.1161 11.1156 13.6501 7.99361 13.6501Z" fill="#FF9A23"/>
<path id="Vector_2" d="M13.6496 7.9941V6.0061C13.6496 2.8841 11.1156 0.350098 7.99361 0.350098H6.00561C2.88361 0.350098 0.349609 2.8841 0.349609 6.0061V7.9941C0.349609 11.1161 2.88361 13.6501 6.00561 13.6501H7.99361C8.17561 13.6501 8.35761 13.6361 8.52561 13.6221C10.7516 12.7821 12.5576 11.0881 13.5656 8.9461C13.6216 8.6381 13.6496 8.3161 13.6496 7.9941Z" fill="#FF9A23"/>
<path id="Vector_3" d="M7.99361 0.350098H6.00561C2.88361 0.350098 0.349609 2.8841 0.349609 6.0061V7.9941C0.349609 10.1641 1.58161 12.0541 3.38761 13.0061C4.00361 13.1461 4.63361 13.2301 5.29161 13.2301C9.78561 13.2301 13.4396 9.5761 13.4396 5.0821C13.4396 4.8441 13.4256 4.6061 13.4116 4.3821C12.7116 2.0441 10.5556 0.350098 7.99361 0.350098Z" fill="#FF9F23"/>
<path id="Vector_4" d="M12.4596 5.0821C12.4596 3.8361 12.1376 2.6601 11.5776 1.6241C10.5976 0.826098 9.36561 0.350098 8.00761 0.350098H6.00561C2.88361 0.350098 0.349609 2.8841 0.349609 6.0061V7.9941C0.349609 9.0721 0.657609 10.0941 1.18961 10.9481C2.35161 11.7601 3.76561 12.2361 5.29161 12.2361C9.23961 12.2501 12.4596 9.0301 12.4596 5.0821Z" fill="#FFA423"/>
<path id="Vector_5" d="M6.00561 0.350098C2.88361 0.350098 0.349609 2.8841 0.349609 6.0061V7.9941C0.349609 8.3021 0.377609 8.5961 0.419609 8.8901C1.55361 10.3321 3.30361 11.2561 5.29161 11.2561C8.70761 11.2561 11.4796 8.4841 11.4796 5.0681C11.4656 3.2901 10.7096 1.6801 9.50561 0.560098C9.02961 0.434098 8.52561 0.350098 8.00761 0.350098H6.00561Z" fill="#FFAA23"/>
<path id="Vector_6" d="M7.44761 0.350098H6.00561C2.88361 0.350098 0.349609 2.8841 0.349609 6.0061V6.7061C1.06361 8.8761 3.16361 10.4161 5.61361 10.2621C8.20361 10.1081 10.3036 8.0221 10.4716 5.4321C10.6256 3.1921 9.33761 1.2181 7.44761 0.350098Z" fill="#FFAF23"/>
<path id="Vector_7" d="M1.13379 5.13807C1.13379 5.69146 1.24279 6.23943 1.45456 6.7507C1.66633 7.26197 1.97673 7.72651 2.36804 8.11782C2.75935 8.50913 3.2239 8.81953 3.73516 9.0313C4.24643 9.24307 4.7944 9.35207 5.34779 9.35207C5.90118 9.35207 6.44915 9.24307 6.96042 9.0313C7.47168 8.81953 7.93623 8.50913 8.32754 8.11782C8.71884 7.72651 9.02924 7.26197 9.24102 6.7507C9.45279 6.23943 9.56179 5.69146 9.56179 5.13807C9.56179 4.58468 9.45279 4.03671 9.24102 3.52544C9.02924 3.01418 8.71884 2.54963 8.32754 2.15832C7.93623 1.76702 7.47168 1.45662 6.96042 1.24484C6.44915 1.03307 5.90118 0.924072 5.34779 0.924072C4.7944 0.924072 4.24643 1.03307 3.73516 1.24484C3.2239 1.45662 2.75935 1.76702 2.36804 2.15832C1.97673 2.54963 1.66633 3.01418 1.45456 3.52544C1.24279 4.03671 1.13379 4.58468 1.13379 5.13807Z" fill="#FFB423"/>
<path id="Vector_8" d="M2.12793 5.12405C2.12793 5.54691 2.21122 5.96562 2.37304 6.35629C2.53486 6.74696 2.77204 7.10193 3.07105 7.40094C3.37005 7.69994 3.72502 7.93712 4.11569 8.09894C4.50636 8.26076 4.92507 8.34405 5.34793 8.34405C5.77079 8.34405 6.1895 8.26076 6.58017 8.09894C6.97084 7.93712 7.32581 7.69994 7.62481 7.40094C7.92382 7.10193 8.161 6.74696 8.32282 6.35629C8.48464 5.96562 8.56793 5.54691 8.56793 5.12405C8.56793 4.27006 8.22868 3.45104 7.62481 2.84717C7.02095 2.2433 6.20193 1.90405 5.34793 1.90405C4.49393 1.90405 3.67491 2.2433 3.07105 2.84717C2.46718 3.45104 2.12793 4.27006 2.12793 5.12405Z" fill="#FFB923"/>
<path id="Vector_9" opacity="0.8" d="M9.32405 4.66205C7.85405 3.19205 5.22205 3.41605 4.11605 5.37605C3.54205 6.37005 3.54205 7.63005 4.11605 8.62405C5.22205 10.5701 7.84005 10.8081 9.32405 9.33805C10.598 8.06405 10.64 5.93605 9.32405 4.66205ZM7.77005 7.82605C7.57405 8.02205 7.39205 8.23205 7.25205 8.42805C7.12605 8.59605 6.87405 8.59605 6.74805 8.42805C6.59405 8.23205 6.41205 8.02205 6.20205 7.82605C5.99205 7.61605 5.78205 7.42005 5.57205 7.26605C5.41805 7.15405 5.41805 6.91605 5.58605 6.80405C5.79605 6.66405 6.00605 6.48205 6.21605 6.28605C6.44005 6.06205 6.63605 5.81005 6.80405 5.58605C6.90205 5.46005 7.09805 5.46005 7.19605 5.58605C7.35005 5.81005 7.54605 6.04805 7.77005 6.27205C7.96605 6.46805 8.19005 6.65005 8.38605 6.80405C8.54005 6.91605 8.55405 7.15405 8.38605 7.26605C8.19005 7.40605 7.98005 7.58805 7.77005 7.82605Z" fill="white"/>
</g>
<defs>
<clipPath id="clip0_418_7163">
<rect width="14" height="14" fill="white"/>
</clipPath>
</defs>
</svg>
