<svg width="44" height="44" viewBox="0 0 44 44" fill="none" xmlns="http://www.w3.org/2000/svg">
<g id="Group 123609">
<rect id="Rectangle 38" width="44" height="44" rx="8" fill="black" fill-opacity="0.4"/>
<g id="Mask group">
<mask id="mask0_2942_9480" style="mask-type:alpha" maskUnits="userSpaceOnUse" x="10" y="10" width="24" height="24">
<rect id="Rectangle 27" x="10" y="10" width="24" height="24" fill="#D9D9D9"/>
</mask>
<g mask="url(#mask0_2942_9480)">
<path id="Vector" d="M31.3488 12.6522C30.8645 12.1678 30.2169 11.8816 29.5326 11.8497C28.8484 11.8178 28.1769 12.0425 27.6497 12.4798L18.9489 19.6964C18.5417 20.0343 18.2096 20.4533 17.9736 20.9269C17.7377 21.4004 17.6031 21.9179 17.5786 22.4464C17.554 22.9749 17.64 23.5027 17.8311 23.996C18.0222 24.4894 18.3141 24.9374 18.6882 25.3115C19.0623 25.6856 19.5103 25.9775 20.0037 26.1686C20.497 26.3597 21.0248 26.4457 21.5533 26.4212C22.0818 26.3966 22.5993 26.2621 23.0729 26.0261C23.5464 25.7901 23.9654 25.458 24.3033 25.0508L31.5199 16.35C32.4268 15.2579 32.3514 13.6562 31.3488 12.6522ZM30.0459 15.1263L24.1551 22.228L21.7717 19.8446L28.8734 13.9538C29.0331 13.8216 29.2364 13.7537 29.4435 13.7634C29.6506 13.7732 29.8467 13.8598 29.9933 14.0064C30.1399 14.1531 30.2265 14.3491 30.2363 14.5562C30.246 14.7633 30.1781 14.9666 30.0459 15.1263ZM22.9276 23.7097L22.8293 23.8272C22.6616 24.0289 22.4536 24.1934 22.2188 24.3102C21.9839 24.4271 21.7272 24.4936 21.4652 24.5056C21.2031 24.5177 20.9415 24.4749 20.6969 24.3801C20.4523 24.2853 20.2301 24.1406 20.0446 23.9551C19.8592 23.7696 19.7144 23.5474 19.6196 23.3028C19.5248 23.0583 19.482 22.7966 19.4941 22.5345C19.5061 22.2725 19.5727 22.0158 19.6895 21.7809C19.8063 21.5461 19.9708 21.3381 20.1725 21.1704L20.29 21.0734L22.9276 23.7097ZM13.6403 29.7221C13.451 30.0566 13.1934 30.3474 12.8842 30.5756C12.575 30.8038 12.2211 30.9643 11.8457 31.0466C13.2836 31.7902 14.9208 32.0569 16.5204 31.8082C18.12 31.5595 19.5989 30.8083 20.7433 29.6633C21.4663 28.8929 21.8612 27.8713 21.8444 26.8149C21.8276 25.7584 21.4005 24.75 20.6534 24.0029C19.9063 23.2557 18.8978 22.8286 17.8414 22.8118C16.7849 22.7951 15.7634 23.19 14.9929 23.913C14.4988 24.4076 14.1405 25.0212 13.9525 25.6947C13.7646 26.3681 13.7534 27.0786 13.92 27.7576C13.92 27.7972 13.92 27.8381 13.9507 27.8738C14.068 28.5072 13.9581 29.1617 13.6403 29.7221ZM15.8359 27.7576V27.6784C15.841 27.7589 15.8359 27.7947 15.8359 27.7576ZM15.7401 27.0181L15.7299 27.0053C15.698 26.6921 15.7353 26.3756 15.839 26.0784C15.9427 25.7811 16.1104 25.5102 16.3302 25.2848C16.7384 24.9046 17.2783 24.6978 17.836 24.7078C18.3937 24.7179 18.9257 24.9441 19.3199 25.3388C19.7141 25.7335 19.9396 26.2658 19.949 26.8235C19.9584 27.3813 19.7509 27.9208 19.3702 28.3286C18.3689 29.321 17.0359 29.9079 15.6277 29.9762C15.9144 29.1951 15.9863 28.3512 15.8359 27.5328V27.5251L15.8295 27.5009L15.7401 27.0181Z" fill="white"/>
</g>
</g>
</g>
</svg>
