<svg width="14" height="14" viewBox="0 0 14 14" fill="none" xmlns="http://www.w3.org/2000/svg">
<g id="shape/star_line">
<path id="star" fill-rule="evenodd" clip-rule="evenodd" d="M6.36998 1.67279C6.65125 1.18988 7.34888 1.18988 7.63015 1.67279L9.26056 4.47204L12.4266 5.15764C12.9728 5.27592 13.1884 5.93941 12.8161 6.35613L10.6576 8.77177L10.984 11.9948C11.0402 12.5508 10.4759 12.9608 9.96446 12.7355L7.00006 11.4291L4.03567 12.7355C3.52427 12.9608 2.95988 12.5508 3.01617 11.9948L3.3425 8.77177L1.18407 6.35613C0.811721 5.93941 1.0273 5.27592 1.57349 5.15764L4.73956 4.47204L6.36998 1.67279ZM7.00006 2.90904L5.65066 5.22582C5.54763 5.40271 5.37498 5.52815 5.1749 5.57148L2.55453 6.13891L4.34093 8.13819C4.47733 8.29085 4.54327 8.49381 4.52265 8.69748L4.25257 11.365L6.70603 10.2838C6.89336 10.2012 7.10677 10.2012 7.2941 10.2838L9.74756 11.365L9.47748 8.69748C9.45685 8.49381 9.5228 8.29085 9.6592 8.13819L11.4456 6.13891L8.82522 5.57148C8.62515 5.52815 8.4525 5.40271 8.34946 5.22582L7.00006 2.90904Z" fill="white"/>
</g>
</svg>
