<svg width="14" height="14" viewBox="0 0 14 14" fill="none" xmlns="http://www.w3.org/2000/svg">
<g id="Stop">
<path id="icon" d="M2.22735 7.00002C2.22735 4.36412 4.36418 2.22729 7.00008 2.22729C9.63599 2.22729 11.7728 4.36412 11.7728 7.00002C11.7728 9.63592 9.63599 11.7727 7.00008 11.7727C4.36418 11.7727 2.22735 9.63592 2.22735 7.00002ZM7.00008 1.16669C3.77842 1.16669 1.16675 3.77836 1.16675 7.00002C1.16675 10.2217 3.77842 12.8334 7.00008 12.8334C10.2217 12.8334 12.8334 10.2217 12.8334 7.00002C12.8334 3.77836 10.2217 1.16669 7.00008 1.16669Z" fill="white" stroke="white" stroke-width="0.2"/>
<path id="icon_2" d="M6.62502 5.12511C6.83211 4.91801 7.16789 4.91801 7.37498 5.12511L8.87492 6.62504C9.08201 6.83213 9.08201 7.16791 8.87491 7.375L7.37498 8.87494C7.16789 9.08203 6.83211 9.08203 6.62502 8.87494L5.12509 7.375C4.91799 7.16791 4.91799 6.83213 5.12508 6.62504L6.62502 5.12511Z" fill="white"/>
</g>
</svg>
