<svg width="14" height="14" viewBox="0 0 14 14" fill="none" xmlns="http://www.w3.org/2000/svg">
<path d="M5.40942 2.27762C4.53078 2.27762 3.81851 3.02381 3.81851 3.94428C3.81851 4.86476 4.53078 5.61095 5.40942 5.61095C6.28805 5.61095 7.00033 4.86476 7.00033 3.94428C7.00033 3.02381 6.28805 2.27762 5.40942 2.27762ZM2.7579 3.94428C2.7579 2.41016 3.94503 1.1665 5.40942 1.1665C6.87381 1.1665 8.06093 2.41016 8.06093 3.94428C8.06093 5.47841 6.87381 6.72206 5.40942 6.72206C3.94503 6.72206 2.7579 5.47841 2.7579 3.94428ZM1.16699 10.6109C1.16699 9.07682 2.35412 7.83317 3.81851 7.83317H7.00033C8.46472 7.83317 9.65184 9.07682 9.65184 10.6109V12.2776C9.65184 12.5844 9.41442 12.8332 9.12154 12.8332C8.82866 12.8332 8.59124 12.5844 8.59124 12.2776V10.6109C8.59124 9.69047 7.87896 8.94428 7.00033 8.94428H3.81851C2.93987 8.94428 2.2276 9.69047 2.2276 10.6109V12.2776C2.2276 12.5844 1.99017 12.8332 1.6973 12.8332C1.40442 12.8332 1.16699 12.5844 1.16699 12.2776V10.6109ZM8.89514 1.67514C9.00503 1.39073 9.3142 1.2535 9.58568 1.36863C10.5564 1.78029 11.2428 2.77765 11.2428 3.94428C11.2428 5.11091 10.5564 6.10828 9.58568 6.51994C9.3142 6.63506 9.00503 6.49783 8.89514 6.21343C8.78525 5.92902 8.91624 5.60513 9.18772 5.49001C9.77173 5.24235 10.1822 4.64286 10.1822 3.94428C10.1822 3.2457 9.77173 2.64622 9.18772 2.39856C8.91624 2.28343 8.78525 1.95955 8.89514 1.67514ZM10.3112 8.32391C10.3988 8.03113 10.6964 7.86817 10.9759 7.95993C12.0519 8.31324 12.8337 9.36573 12.8337 10.6109V12.2776C12.8337 12.5844 12.5962 12.8332 12.3034 12.8332C12.0105 12.8332 11.7731 12.5844 11.7731 12.2776V10.6109C11.7731 9.86516 11.3051 9.23242 10.6587 9.02018C10.3792 8.92842 10.2237 8.61669 10.3112 8.32391Z" fill="white"/>
</svg>
