<svg width="14" height="14" viewBox="0 0 14 14" fill="none" xmlns="http://www.w3.org/2000/svg">
<g id="Frame">
<path id="Vector" d="M7 3.32182L6.61201 2.99279C5.90567 2.39379 5.48658 2.20419 4.87019 2.20419C3.91499 2.20419 3.15718 2.58144 2.62918 3.20227C2.09379 3.83177 1.76675 4.7473 1.76675 5.84969C1.76675 6.60775 2.10972 7.47079 2.90958 8.45935C3.70849 9.44674 4.92772 10.5144 6.58845 11.6672L7 3.32182ZM7 3.32182L7.38805 2.99287M7 3.32182L7.38805 2.99287M7.38805 2.99287C8.09469 2.39387 8.51365 2.20419 9.12998 2.20419C10.0852 2.20419 10.843 2.58144 11.371 3.20227M7.38805 2.99287L11.371 3.20227M11.371 3.20227C11.9064 3.83177 12.2334 4.7473 12.2334 5.84969M11.371 3.20227L12.2334 5.84969M12.2334 5.84969C12.2334 6.60775 11.8904 7.47079 11.0906 8.45935M12.2334 5.84969L11.0906 8.45935M11.0906 8.45935C10.2917 9.44674 9.07244 10.5144 7.41171 11.6672M11.0906 8.45935L7.41171 11.6672M7.41171 11.6672C7.29078 11.751 7.14718 11.7958 7.00008 11.7958M7.41171 11.6672L7.00008 11.7958M7.00008 11.7958C6.8532 11.7958 6.7098 11.7511 6.58898 11.6676L7.00008 11.7958Z" stroke="white" stroke-width="1.2"/>
</g>
</svg>
